<?xml version="1.0" standalone="no"?>
<!DOCTYPE svg PUBLIC "-//W3C//DTD SVG 20010904//EN"
 "http://www.w3.org/TR/2001/REC-SVG-20010904/DTD/svg10.dtd">
<svg version="1.0" xmlns="http://www.w3.org/2000/svg"
 width="120.000000pt" height="48.000000pt" viewBox="0 0 120.000000 48.000000"
 preserveAspectRatio="xMidYMid meet">

<g transform="translate(0.000000,48.000000) scale(0.100000,-0.100000)"
fill="#000000" stroke="none">
<path d="M525 470 c-53 -18 -85 -55 -85 -99 0 -18 6 -21 40 -21 28 0 40 4 40
14 0 28 30 46 76 46 56 0 89 -28 79 -68 -9 -37 -9 -37 -104 -71 -104 -37 -122
-54 -129 -120 -6 -71 12 -109 62 -132 82 -37 214 -11 236 46 14 37 13 318 -2
349 -6 14 -22 33 -36 42 -30 20 -134 28 -177 14z m146 -311 c-3 -78 -15 -91
-86 -87 -44 3 -51 6 -59 31 -18 50 2 79 69 104 33 12 64 21 69 19 5 -1 9 -31
7 -67z"/>
</g>
</svg>
