<?xml version="1.0" standalone="no"?>
<!DOCTYPE svg PUBLIC "-//W3C//DTD SVG 20010904//EN"
 "http://www.w3.org/TR/2001/REC-SVG-20010904/DTD/svg10.dtd">
<svg version="1.0" xmlns="http://www.w3.org/2000/svg"
 width="336.000000pt" height="304.000000pt" viewBox="0 0 336.000000 304.000000"
 preserveAspectRatio="xMidYMid meet">

<g transform="translate(0.000000,304.000000) scale(0.100000,-0.100000)"
fill="#000000" stroke="none">
<path d="M2613 3024 c-8 -20 8 -36 26 -25 15 10 8 41 -9 41 -6 0 -13 -7 -17
-16z"/>
<path d="M2238 2816 c-26 -36 -107 -85 -168 -102 -123 -34 -139 -43 -168 -95
-24 -44 -31 -49 -62 -49 -41 -1 -108 -29 -132 -56 -46 -52 -60 -137 -33 -201
19 -46 6 -66 -39 -58 -18 3 -37 0 -46 -7 -23 -19 -60 -69 -60 -81 0 -6 6 -3
13 7 13 18 15 18 35 -5 12 -12 22 -29 22 -36 0 -17 -32 -17 -50 0 -12 10 -12
9 -1 -5 20 -26 46 -22 74 11 17 20 28 26 38 20 11 -6 -2 -25 -57 -80 l-71 -71
-25 25 -25 25 27 29 c21 21 26 33 20 48 -8 18 -9 18 -9 -5 -1 -13 -15 -39 -33
-57 -28 -29 -30 -35 -20 -58 13 -29 46 -33 74 -9 14 14 21 14 33 4 11 -9 13
-27 10 -74 l-4 -61 9 59 c8 51 7 63 -7 78 -16 18 -15 20 20 49 20 16 46 44 58
61 21 29 21 32 5 44 -22 16 -14 63 15 90 18 16 20 16 39 -1 26 -24 9 -47 -29
-39 -24 5 -24 4 4 -9 27 -12 31 -12 43 5 10 14 17 16 32 8 10 -5 34 -10 53
-10 32 0 35 -3 47 -45 15 -52 59 -118 90 -135 12 -6 4 6 -18 28 -32 32 -72
111 -72 142 0 3 17 12 38 19 39 14 71 45 98 95 12 22 15 46 11 92 -3 48 -1 66
12 80 15 18 15 18 -5 1 -20 -16 -21 -16 -43 14 -26 35 -22 41 39 59 60 17 86
11 151 -32 61 -41 64 -46 78 -103 7 -33 15 -62 17 -64 2 -2 17 2 33 8 66 28
96 -38 45 -98 -17 -20 -35 -31 -52 -31 -22 0 -30 -8 -45 -45 -21 -51 -81 -116
-129 -141 -18 -10 -55 -23 -83 -30 -28 -7 -39 -12 -25 -13 14 0 43 6 64 14 22
8 43 12 46 10 14 -9 91 68 114 113 l23 45 6 -99 c7 -98 7 -99 -21 -126 -15
-15 -39 -30 -53 -33 -24 -6 -27 -3 -39 39 -7 25 -14 46 -17 46 -14 0 -143 -65
-171 -86 -19 -15 -62 -70 -97 -123 -68 -106 -123 -174 -134 -166 -4 2 -8 -2
-8 -10 0 -34 60 33 143 160 l59 90 7 -125 c5 -91 14 -149 33 -215 50 -166 65
-230 71 -301 l7 -70 -36 4 c-37 4 -57 -12 -38 -31 9 -9 11 -8 6 6 -9 22 16 22
100 3 60 -15 60 -14 119 17 32 17 98 67 146 112 l88 80 -2 241 c-1 225 0 243
18 263 35 39 95 18 122 -43 7 -17 13 -25 14 -17 0 28 -63 111 -111 147 -51 37
-134 74 -168 74 -23 0 -31 26 -31 105 l0 60 65 33 c35 19 83 54 106 79 41 45
42 46 35 105 -5 47 -2 68 13 102 11 23 23 54 27 70 6 26 5 27 -14 17 -27 -14
-55 -4 -46 18 4 9 9 41 11 71 4 51 3 53 -9 30 -18 -33 -75 -37 -69 -5 10 59
12 125 3 125 -6 0 -13 -9 -17 -20 -10 -31 -54 -60 -92 -60 l-35 0 7 40 c8 46
6 48 -17 16z m-361 -291 c3 -9 -3 -25 -12 -35 -10 -11 -15 -23 -12 -27 4 -3 7
-1 7 5 0 7 5 12 10 12 26 0 4 -21 -60 -59 -38 -23 -70 -44 -70 -47 0 -5 49 22
95 53 26 17 33 16 38 -4 4 -14 5 -13 6 4 1 28 41 58 53 40 5 -7 8 -8 8 -1 0
19 -12 24 -34 12 -20 -10 -20 -9 2 12 20 18 25 20 39 8 41 -34 55 -126 27
-180 -12 -24 -18 -28 -25 -17 -7 11 -9 9 -9 -7 0 -26 -15 -40 -53 -49 -27 -7
-27 -7 -29 46 l-2 54 -3 -52 c-4 -50 -5 -53 -32 -53 -15 0 -43 10 -62 23 -96
64 -88 203 14 260 40 21 95 23 104 2z m-234 -289 c3 -8 3 -16 0 -19 -6 -7 -43
15 -43 25 0 14 38 8 43 -6z m-31 -23 c10 -9 18 -23 18 -32 0 -11 -4 -9 -16 7
-8 12 -20 22 -26 22 -6 0 1 -12 15 -26 15 -15 24 -31 21 -36 -4 -6 -19 3 -33
18 -20 21 -25 34 -19 47 11 21 17 21 40 0z m-102 -198 c0 -8 -4 -15 -8 -15
-13 0 -32 23 -32 37 0 11 5 11 20 3 11 -6 20 -17 20 -25z"/>
<path d="M1962 2420 c0 -14 2 -19 5 -12 2 6 2 18 0 25 -3 6 -5 1 -5 -13z"/>
<path d="M1885 2407 c-11 -7 -24 -17 -30 -23 -5 -6 -31 -26 -57 -43 -27 -18
-48 -34 -48 -37 0 -2 23 11 52 31 38 25 54 31 60 22 5 -8 8 -5 8 9 0 12 6 24
14 27 11 4 16 -3 19 -26 3 -27 4 -25 5 11 1 23 1 42 0 41 -2 0 -12 -6 -23 -12z"/>
<path d="M1952 2360 c0 -19 2 -27 5 -17 2 9 2 25 0 35 -3 9 -5 1 -5 -18z"/>
<path d="M1291 2735 c-1 -11 -4 -31 -6 -45 l-6 -25 11 25 c6 13 9 33 7 45 -4
19 -4 19 -6 0z"/>
<path d="M1382 2713 l-38 -38 36 30 c19 16 39 33 45 37 5 5 6 8 2 8 -4 0 -25
-17 -45 -37z"/>
<path d="M304 2675 c-8 -21 2 -45 19 -45 20 0 40 27 33 45 -7 19 -45 20 -52 0z"/>
<path d="M1468 2633 c6 -2 18 -2 25 0 6 3 1 5 -13 5 -14 0 -19 -2 -12 -5z"/>
<path d="M1408 2623 c6 -2 18 -2 25 0 6 3 1 5 -13 5 -14 0 -19 -2 -12 -5z"/>
<path d="M981 2511 c-10 -6 -5 -11 18 -16 18 -4 35 -4 38 -1 4 3 -4 6 -16 6
-12 0 -19 4 -16 10 8 12 -5 13 -24 1z"/>
<path d="M1375 2511 c3 -5 -3 -12 -12 -14 -10 -2 -7 -3 6 -2 19 2 27 -6 47
-49 29 -64 32 -52 3 14 -11 27 -27 51 -35 54 -8 3 -12 2 -9 -3z"/>
<path d="M2074 2500 c16 -5 38 -17 50 -27 12 -10 9 -6 -6 10 -16 15 -38 27
-51 26 -19 -1 -18 -2 7 -9z"/>
<path d="M1168 2483 l122 -4 0 -27 c0 -24 8 -31 75 -61 41 -18 75 -39 75 -45
0 -6 -10 -27 -23 -46 -35 -53 -71 -118 -53 -96 42 52 96 154 90 170 -4 12 -9
14 -14 7 -4 -8 -28 -2 -73 20 -55 25 -67 35 -67 54 0 14 7 25 18 28 9 3 -48 4
-128 4 l-145 -1 123 -3z"/>
<path d="M1071 2463 c-3 -39 9 -43 113 -41 l101 2 -99 5 c-87 5 -100 8 -107
26 -4 11 -8 15 -8 8z"/>
<path d="M922 2404 c-12 -25 -19 -51 -16 -57 28 -49 298 -396 304 -390 6 7 88
137 129 203 39 65 -11 -2 -66 -88 -34 -53 -63 -89 -63 -78 0 15 -3 16 -14 7
-11 -9 -38 21 -145 163 -72 96 -131 178 -131 183 0 4 32 21 70 37 39 16 69 30
67 33 -2 2 -32 -8 -66 -23 -34 -15 -64 -24 -67 -21 -3 3 2 19 11 37 9 18 15
34 13 36 -2 2 -14 -17 -26 -42z"/>
<path d="M1091 2394 c0 -11 3 -14 6 -6 3 7 2 16 -1 19 -3 4 -6 -2 -5 -13z"/>
<path d="M1275 2370 c-4 -17 -5 -34 -2 -36 2 -3 7 10 11 27 3 18 4 34 2 36 -2
3 -7 -10 -11 -27z"/>
<path d="M2035 2368 c9 -23 33 -30 56 -18 10 6 19 13 19 16 0 2 -9 0 -21 -6
-17 -9 -25 -8 -40 6 -17 15 -19 15 -14 2z"/>
<path d="M1101 2354 c0 -11 3 -14 6 -6 3 7 2 16 -1 19 -3 4 -6 -2 -5 -13z"/>
<path d="M1111 2320 c0 -8 10 -55 23 -105 13 -49 24 -83 25 -75 0 8 -10 56
-23 105 -13 50 -24 83 -25 75z"/>
<path d="M1256 2284 c-4 -20 -5 -38 -3 -40 3 -3 8 11 11 32 4 20 5 38 3 40 -3
3 -8 -11 -11 -32z"/>
<path d="M1242 2210 c0 -14 2 -19 5 -12 2 6 2 18 0 25 -3 6 -5 1 -5 -13z"/>
<path d="M1964 2197 c-11 -29 0 -72 19 -75 16 -3 18 2 15 39 -3 43 -23 64 -34
36z m26 -32 c0 -19 -4 -35 -10 -35 -5 0 -10 16 -10 35 0 19 5 35 10 35 6 0 10
-16 10 -35z"/>
<path d="M1232 2160 c0 -14 2 -19 5 -12 2 6 2 18 0 25 -3 6 -5 1 -5 -13z"/>
<path d="M1726 2158 c-3 -13 -7 -39 -9 -58 -2 -19 -7 -44 -11 -55 -4 -12 -1
-10 7 5 8 14 17 49 19 78 5 54 2 69 -6 30z"/>
<path d="M1161 2104 c0 -11 3 -14 6 -6 3 7 2 16 -1 19 -3 4 -6 -2 -5 -13z"/>
<path d="M1222 2100 c0 -14 2 -19 5 -12 2 6 2 18 0 25 -3 6 -5 1 -5 -13z"/>
<path d="M1171 2064 c0 -11 3 -14 6 -6 3 7 2 16 -1 19 -3 4 -6 -2 -5 -13z"/>
<path d="M1212 2045 c0 -16 2 -22 5 -12 2 9 2 23 0 30 -3 6 -5 -1 -5 -18z"/>
<path d="M1181 2024 c0 -11 3 -14 6 -6 3 7 2 16 -1 19 -3 4 -6 -2 -5 -13z"/>
<path d="M2886 1974 c-20 -20 -9 -44 20 -44 19 0 24 5 24 24 0 29 -24 40 -44
20z"/>
<path d="M1703 1910 c0 -30 2 -43 4 -27 2 15 2 39 0 55 -2 15 -4 2 -4 -28z"/>
<path d="M1574 1730 c0 -80 2 -112 3 -72 2 39 2 105 0 145 -1 39 -3 7 -3 -73z"/>
<path d="M1712 1810 c0 -19 2 -27 5 -17 2 9 2 25 0 35 -3 9 -5 1 -5 -18z"/>
<path d="M2583 1750 c0 -25 2 -35 4 -22 2 12 2 32 0 45 -2 12 -4 2 -4 -23z"/>
<path d="M1723 1715 c0 -33 2 -45 4 -27 2 18 2 45 0 60 -2 15 -4 0 -4 -33z"/>
<path d="M330 1696 c-6 -8 -10 -25 -8 -38 2 -19 9 -23 38 -23 29 0 36 4 38 23
4 28 -14 52 -38 52 -10 0 -23 -7 -30 -14z"/>
<path d="M2594 1530 c0 -91 2 -128 3 -82 2 45 2 119 0 165 -1 45 -3 8 -3 -83z"/>
<path d="M1870 1536 c-35 -36 -76 -70 -92 -77 -16 -6 -27 -14 -24 -16 13 -13
109 60 156 118 17 21 29 39 28 39 -2 0 -32 -29 -68 -64z"/>
<path d="M1582 1555 c0 -16 2 -22 5 -12 2 9 2 23 0 30 -3 6 -5 -1 -5 -18z"/>
<path d="M1430 1515 c0 -8 7 -15 15 -15 8 0 15 7 15 15 0 8 -7 15 -15 15 -8 0
-15 -7 -15 -15z"/>
<path d="M1590 1509 c0 -21 53 -79 72 -79 7 1 2 7 -11 14 -13 7 -32 29 -42 47
-10 19 -18 27 -19 18z"/>
<path d="M1688 1423 c7 -3 16 -2 19 1 4 3 -2 6 -13 5 -11 0 -14 -3 -6 -6z"/>
<path d="M3174 1375 c-4 -9 -2 -21 4 -27 15 -15 44 -1 40 19 -4 23 -36 29 -44
8z"/>
<path d="M2577 1322 c-11 -64 -59 -110 -184 -174 -59 -31 -138 -66 -174 -78
-54 -18 -82 -36 -148 -96 -45 -41 -87 -74 -93 -74 -6 0 -9 -3 -6 -6 4 -3 17 0
30 7 12 7 34 14 48 15 21 3 17 -3 -25 -39 -83 -70 -121 -106 -110 -106 6 0 48
36 95 81 47 44 79 77 73 74 -7 -4 -13 -2 -13 5 0 10 -3 10 -12 1 -18 -18 -33
-15 -18 3 7 9 19 14 26 11 7 -3 21 8 31 24 13 21 22 27 33 20 12 -7 10 -14
-10 -36 l-25 -28 32 25 c38 29 40 35 12 44 l-21 7 20 20 c18 18 35 21 139 23
117 2 146 8 265 59 13 6 17 1 21 -21 2 -15 2 13 -1 63 -4 71 -1 101 13 136 9
25 15 54 13 64 -2 11 -7 0 -11 -24z"/>
<path d="M2012 1124 c25 -13 26 -17 15 -35 -6 -11 -55 -55 -107 -97 -142 -114
-304 -257 -332 -294 -27 -35 -58 -92 -58 -105 0 -4 14 16 30 44 17 29 54 76
83 104 92 90 225 200 231 190 8 -12 55 -20 62 -10 3 5 15 9 26 9 19 0 54 29
88 75 8 11 -4 3 -25 -17 -41 -38 -81 -58 -116 -58 -26 0 -24 17 2 25 14 5 18
10 10 14 -7 5 2 17 26 34 45 32 60 25 18 -9 -16 -13 -25 -24 -19 -24 15 0 47
38 77 92 l26 48 -22 15 c-12 8 -26 15 -32 15 -5 -1 2 -7 17 -16z"/>
<path d="M1607 1073 c-12 -11 -7 -33 8 -39 20 -8 45 13 38 32 -5 14 -34 19
-46 7z"/>
<path d="M2552 1010 c-1 -19 -4 -53 -7 -75 l-5 -40 11 40 c5 22 8 56 6 75 l-4
35 -1 -35z"/>
<path d="M100 896 c0 -8 4 -17 8 -20 13 -8 35 11 28 23 -10 16 -36 14 -36 -3z"/>
<path d="M2527 859 c-13 -65 -60 -121 -209 -244 -80 -66 -144 -122 -142 -124
4 -4 220 174 281 232 l41 40 30 -22 c37 -26 67 -87 56 -111 -18 -36 -127 -118
-278 -209 -86 -52 -156 -96 -156 -98 0 -8 236 133 320 190 69 48 130 108 130
128 0 10 12 30 27 45 24 24 36 28 98 30 107 3 237 59 223 96 -5 11 -29 17 -95
21 -48 3 -121 16 -161 27 -81 24 -91 21 -112 -30 -11 -27 -45 -49 -57 -37 -3
3 0 22 7 41 6 20 10 42 7 49 -2 6 -7 -4 -10 -24z"/>
<path d="M1850 703 c-23 -32 -57 -87 -74 -123 -27 -57 -31 -75 -31 -150 0 -47
-4 -88 -10 -92 -6 -5 -3 -8 6 -8 9 0 24 -12 34 -26 27 -41 98 -67 164 -61 49
4 147 34 139 43 -2 1 -28 -6 -58 -16 -116 -40 -211 -16 -250 65 -46 96 -9 242
93 368 26 31 43 57 39 57 -5 0 -28 -26 -52 -57z"/>
<path d="M1522 560 c0 -14 2 -19 5 -12 2 6 2 18 0 25 -3 6 -5 1 -5 -13z"/>
<path d="M1513 490 c0 -25 2 -35 4 -22 2 12 2 32 0 45 -2 12 -4 2 -4 -23z"/>
<path d="M1525 415 c6 -34 56 -85 83 -85 10 1 5 6 -13 14 -35 15 -48 30 -64
71 l-11 30 5 -30z"/>
<path d="M1648 323 c12 -2 32 -2 45 0 12 2 2 4 -23 4 -25 0 -35 -2 -22 -4z"/>
<path d="M2110 305 c-14 -8 -20 -14 -14 -15 5 0 19 7 30 15 24 18 16 19 -16 0z"/>
</g>
</svg>
